<svg xmlns="http://www.w3.org/2000/svg" xmlns:xlink="http://www.w3.org/1999/xlink" viewBox="0 0 814 652.21"><defs><style>.cls-1{fill:#c0195b;}.cls-2{fill:url(#未命名漸層_20);}.cls-3{fill:url(#未命名漸層_6);}.cls-4{fill:#b54e44;}.cls-5{fill:#e8752d;}.cls-6{fill:#fdaa36;}.cls-7{fill:#f7bb7e;}.cls-8{fill:#fde1b5;}.cls-9{fill:#f73550;}.cls-10{fill:#fc7846;}.cls-11{fill:#ded0db;}.cls-12,.cls-15{fill:#fff;}.cls-13{fill:#ff6646;}.cls-14{fill:#6d1542;}.cls-15{font-size:93.53px;stroke:#42210b;stroke-miterlimit:10;stroke-width:2px;font-family:CooperBlack, Cooper Black;}.cls-16{letter-spacing:0.01em;}.cls-17{letter-spacing:0.01em;}</style><linearGradient id="未命名漸層_20" x1="407" y1="25.1" x2="407" y2="657.11" gradientUnits="userSpaceOnUse"><stop offset="0" stop-color="#fec957"/><stop offset="0.7" stop-color="#f7781e"/><stop offset="1" stop-color="#fec957"/></linearGradient><linearGradient id="未命名漸層_6" x1="187.81" y1="187.58" x2="641.3" y2="474.18" gradientUnits="userSpaceOnUse"><stop offset="0" stop-color="#632b3b"/><stop offset="1" stop-color="#42210b"/></linearGradient></defs><title>資產 1</title><g id="圖層_2" data-name="圖層 2"><g id="圖層_6" data-name="圖層 6"><path class="cls-1" d="M5,352.32C10.86,364,25.43,396,25.43,404.75S5,460.09,5,460.09s-14.56,20.39,5.83,20.39H127.38V329H13.78C-.79,329-3.7,331.93,5,352.32Z"/><path class="cls-1" d="M809,460.09s-20.39-46.6-20.39-55.34S803.14,364,809,352.32c8.74-20.39,5.83-23.3-8.74-23.3H683.71V480.48H803.14C823.52,480.48,809,460.09,809,460.09Z"/><path class="cls-2" d="M122,172.87V479.34a19.63,19.63,0,0,0,9.81,17L397.19,649.58a19.63,19.63,0,0,0,19.63,0L682.23,496.34a19.63,19.63,0,0,0,9.81-17V172.87a19.63,19.63,0,0,0-9.81-17L416.81,2.63a19.63,19.63,0,0,0-19.63,0L131.77,155.87A19.63,19.63,0,0,0,122,172.87Z"/><path class="cls-3" d="M156.5,192.81V459.4a19.63,19.63,0,0,0,9.81,17L397.19,609.69a19.63,19.63,0,0,0,19.63,0L647.68,476.4a19.63,19.63,0,0,0,9.81-17V192.81a19.63,19.63,0,0,0-9.81-17L416.81,42.52a19.63,19.63,0,0,0-19.63,0L166.32,175.81A19.63,19.63,0,0,0,156.5,192.81Z"/><path class="cls-4" d="M430.14,187.21c-49-6.61-128.34,184.92-29.42,187.23,74.58,1.75,70.84-61.15,69.82-86.18C467.66,217.21,454.63,190.51,430.14,187.21Z"/><path class="cls-5" d="M437.76,292.56c4,.07,8.22-3,10.29-8,2.53-6,.86-12.5-3.73-14.42a8,8,0,0,0-7.14.72c-3.41-23.57-15.56-41-30-41-17,.05-30.74,24.34-30.64,54.25s14,54.11,31,54.05C422.86,338.16,435.49,318.38,437.76,292.56Z"/><ellipse class="cls-5" cx="450.7" cy="319.66" rx="9.56" ry="7.02" transform="translate(-18.04 612.23) rotate(-67.32)"/><ellipse class="cls-6" cx="411.01" cy="236.58" rx="10.19" ry="7.28" transform="translate(121.6 612.27) rotate(-82.32)"/><ellipse class="cls-6" cx="395.01" cy="276.65" rx="26.21" ry="13.02" transform="translate(-21.63 519.5) rotate(-65.24)"/><ellipse class="cls-6" cx="415.27" cy="297.43" rx="5.83" ry="8.74" transform="translate(-34.5 55.31) rotate(-7.32)"/><path class="cls-7" d="M450.08,200.94l4.25-31.51a20.37,20.37,0,1,0-8.18-38.08l-.13-.19a20.39,20.39,0,1,0-25.88,30.3l-4.7,34.81a17.48,17.48,0,1,0,34.64,4.67Z"/><path class="cls-8" d="M431.08,195.65c2.24-4.56,7.89-25.1,8.34-34.18a20.38,20.38,0,0,1-19.28,0l-4.7,34.81a17.28,17.28,0,0,0,1.42,9.44A18.41,18.41,0,0,0,431.08,195.65Z"/><path class="cls-8" d="M419.56,128.49a8.07,8.07,0,0,0-3.41-.1,20.38,20.38,0,0,0-5.95,20.72,8.15,8.15,0,0,0,3.48,1.93c5.13,1.34,10.61-2.62,12.23-8.85S424.7,129.83,419.56,128.49Z"/><path class="cls-4" d="M517.61,244c-38.86-30.56-204.43,94.2-120.37,146.4,63.38,39.36,92.07-16.74,103.9-38.83C534.71,288.87,537,259.25,517.61,244Z"/><path class="cls-5" d="M470.7,338.61c3.4,2.09,8.61,1.58,12.9-1.64,5.25-3.93,7.08-10.34,4.1-14.32a8,8,0,0,0-6.52-3c9-22,7.42-43.25-5.06-50.55-14.69-8.59-38.84,5.38-53.94,31.19s-15.42,53.71-.73,62.3C434.72,370.35,455.65,359.71,470.7,338.61Z"/><ellipse class="cls-5" cx="468.1" cy="368.54" rx="9.56" ry="7.02" transform="translate(-127.49 354.05) rotate(-36.82)"/><ellipse class="cls-6" cx="476.06" cy="276.81" rx="10.19" ry="7.28" transform="translate(-35.8 479.92) rotate(-51.82)"/><ellipse class="cls-6" cx="441.94" cy="303.21" rx="26.21" ry="13.02" transform="translate(-94.01 305.95) rotate(-34.75)"/><ellipse class="cls-6" cx="448.86" cy="331.4" rx="8.74" ry="5.83" transform="translate(-32.47 613.57) rotate(-66.82)"/><path class="cls-7" d="M527.82,265.93l19.65-25a20.37,20.37,0,1,0,12.27-37c0-.08,0-.15,0-.23a20.39,20.39,0,1,0-37.68,13l-21.71,27.61a17.48,17.48,0,0,0,27.48,21.61Z"/><path class="cls-8" d="M514.13,251.72c4.24-2.8,19.54-17.62,24.53-25.22a20.38,20.38,0,0,1-16.6-9.8l-21.71,27.61a17.28,17.28,0,0,0-3.56,8.86A18.41,18.41,0,0,0,514.13,251.72Z"/><path class="cls-8" d="M538.29,188a8.07,8.07,0,0,0-2.89-1.82A20.38,20.38,0,0,0,519.76,201a8.15,8.15,0,0,0,2,3.43c3.74,3.76,10.47,3.12,15-1.42S542,191.77,538.29,188Z"/><path class="cls-4" d="M284.66,232.9c-35,35,69.26,214.17,131.07,136.9,46.6-58.26-5.69-93.4-26.21-107.77C331.27,221.25,302.14,215.42,284.66,232.9Z"/><path class="cls-5" d="M373.07,290.7c2.47-3.13,2.59-8.36-.09-13-3.28-5.68-9.42-8.26-13.73-5.77a8,8,0,0,0-3.76,6.12c-20.81-11.58-42.07-12.5-50.79-1-10.27,13.57.73,39.21,24.57,57.26S380.77,356,391,342.44C400.31,330.2,392.23,308.16,373.07,290.7Z"/><ellipse class="cls-5" cx="402.47" cy="296.84" rx="7.02" ry="9.56" transform="translate(-94.5 241.01) rotate(-30)"/><ellipse class="cls-6" cx="312.34" cy="278.04" rx="7.28" ry="10.19" transform="translate(-105.13 302.29) rotate(-45)"/><ellipse class="cls-6" cx="334.5" cy="315.06" rx="13.02" ry="26.21" transform="translate(-108.6 193.34) rotate(-27.93)"/><ellipse class="cls-6" cx="363.31" cy="311.54" rx="5.83" ry="8.74" transform="translate(-88.15 470.41) rotate(-60)"/><path class="cls-7" d="M307.67,225.36l-22.48-22.48a20.37,20.37,0,1,0-35.25-16.58h-.23a20.39,20.39,0,1,0,8.41,38.95L283,250.08a17.48,17.48,0,1,0,24.72-24.72Z"/><path class="cls-8" d="M291.95,237.27c-2.27-4.54-15.18-21.49-22.13-27.35a20.38,20.38,0,0,1-11.7,15.32L283,250.08a17.28,17.28,0,0,0,8.37,4.59A18.41,18.41,0,0,0,291.95,237.27Z"/><path class="cls-8" d="M231.56,205.71a8.07,8.07,0,0,0-2.15,2.65,20.38,20.38,0,0,0,12.87,17.29,8.15,8.15,0,0,0,3.65-1.6c4.18-3.27,4.34-10,.38-15.09S235.73,202.44,231.56,205.71Z"/><path class="cls-1" d="M485.64,477.57H325.44c-11.65-2.91-32-17.1-32-37.87l-5.83-99.4c0-20.76,18.64-20,37.87-20h160.2c19.22,0,40.78,2.12,40.78,22.88l-8.74,99.45C514.77,468.83,497.3,477.57,485.64,477.57Z"/><path class="cls-9" d="M415.74,366.88H289.13L290.84,396h124.9c35,0,49.52,5.83,35-11.65A49.23,49.23,0,0,0,415.74,366.88Z"/><rect class="cls-10" x="325.44" y="390.19" width="55.34" height="49.52" rx="13.11" ry="13.11"/><rect class="cls-10" x="398.26" y="390.19" width="26.21" height="46.6" rx="10.19" ry="10.19"/><rect class="cls-11" x="270.1" y="317.37" width="273.8" height="23.3" rx="4" ry="4"/><rect class="cls-12" x="322.53" y="317.37" width="78.64" height="23.3" rx="4" ry="4"/><path class="cls-13" d="M741.86,407.66a105.13,105.13,0,0,0-11.65-14.56l-37.76-37.87V416.1L121,416.4l.55-61.17L83.68,393.1A105.13,105.13,0,0,0,72,407.66c-7.23,10.84-5.83,41.75-5.83,41.75v88.11a30.43,30.43,0,0,0,30.34,30.34h620.9a30.43,30.43,0,0,0,30.34-30.34V446.74c0-.16,0-.32,0-.48C747.9,438.13,747.68,416.39,741.86,407.66Z"/><path class="cls-14" d="M121.55,355.23S83.09,393.42,80.77,396c-.46,2.89-1.59,8.61,0,11.65,2.91,5.56,5.83,8.74,17.48,8.74h23.3Z"/><path class="cls-14" d="M736.14,398.92l-43.69-43.69V416.4h23.19c11.65,0,13.44-1.11,17.59-5.83C736.25,407.13,736.14,398.92,736.14,398.92Z"/><rect class="cls-9" x="104.07" y="416.1" width="605.93" height="151.76" rx="10.42" ry="10.42"/><text class="cls-15" transform="translate(172 519.83)"><tspan class="cls-16">C</tspan><tspan x="68.23" y="0">HI</tspan><tspan class="cls-17" x="181.91" y="0">C</tspan><tspan x="250.37" y="0">KEN</tspan></text></g></g></svg>