<svg xmlns="http://www.w3.org/2000/svg" viewBox="0 0 411 366.15"><defs><style>.cls-1{fill:#930100;}.cls-2{fill:#f09f36;}.cls-3{fill:#f2eeed;}.cls-4{fill:#f8af46;}.cls-5{fill:#cb1d1b;}.cls-6{fill:#800102;}.cls-7{fill:#dd322f;}.cls-8{fill:#f8be41;}.cls-9{fill:#f5f3f4;}.cls-10{fill:#e9dfe0;}.cls-11{fill:#f1a41e;}.cls-12{fill:#e98b21;}.cls-13{fill:#ded3d5;}.cls-14{fill:#d12e2a;}.cls-15{fill:#be2d2b;}</style></defs><title>menu資產 3</title><g id="圖層_2" data-name="圖層 2"><g id="圖層_8" data-name="圖層 8"><rect class="cls-1" width="411" height="366.15"/><path class="cls-2" d="M182.38,100.08c-1.5,1.56-.12,4-2.84,5.07-1-3.5-.36-6.86.24-10.14.34-1.86,1.82-1.8,2.93-.56a22.91,22.91,0,0,1,2.14,3.45,9.42,9.42,0,0,0,1.32-.74c1.79-1.48,1.4-5.08,4.75-5,.71,0,.51,9.54-.28,10.51-.26.32-.84.7-1.16.62-1.83-.44-.43-2.42-1.49-3.28C185,102.38,185,102.38,182.38,100.08Z"/><path class="cls-2" d="M207.84,94.64c-2.34,2.17-.52,5.07-3.55,6.57a32.76,32.76,0,0,1,.2-10c.24-1.87,1.53-2.05,2.84-.83s2.49,2.6,3.71,3.88c.42-.31.74-.44.87-.67.95-1.67-1.06-5.33,2.09-5,1.91.18.29,3.45.41,5.31a7.6,7.6,0,0,1-.17,2c-.25,1.22.5,2.93-1.12,3.51s-2.26-1-3.12-2S208.57,95.58,207.84,94.64Z"/><path class="cls-2" d="M202.08,100.66c-2.75,1.55-6.18,3.07-7.59,1.5-2.16-2.42-.91-6.49-.06-9.42,1-3.5,4.92-1.8,7.63-2.67.13,2.49-1.52,2.18-2.68,2.48s-2.69,0-2.39,1.72,1.88.51,2.85.76a5.2,5.2,0,0,1,1.13.61c-.72,2.41-5.12.65-4.36,3.6C197.09,101.15,200,98.85,202.08,100.66Z"/><path class="cls-2" d="M147.85,104a106.36,106.36,0,0,1,27.88-4.57A103.87,103.87,0,0,1,147.85,104Z"/><path class="cls-2" d="M219.48,90.77c0,2.09-1,4.68,1.9,5s3.16-2.27,3.61-4.44c.38-1.81-.62-5.32,1.48-5,2.67.37.45,3.56.71,5.49a4.39,4.39,0,0,1-.32,1.94A6.55,6.55,0,0,1,221,98.34a3.17,3.17,0,0,1-3.58-2.1,13.88,13.88,0,0,1,.24-8.25,1.34,1.34,0,0,1,1.21-.5C220.63,88.32,219.21,89.82,219.48,90.77Z"/><path class="cls-2" d="M260.63,85.9a281.53,281.53,0,0,1-28,4.59l-.3-1.71,27.85-4.68Z"/><path class="cls-3" d="M175,66.6a24.53,24.53,0,0,1,4.47-1.86c3.13-.59,5.33.3,5,4.09-.45,5-.94,9.92-1.39,14.88-.13,1.4-.4,2.85-2.12,2.82-2,0-1.62-1.75-1.56-3,.16-3.48.48-7,.64-10.44.07-1.43.47-3.36-1.56-3.65a3.33,3.33,0,0,0-3.83,3.14c-.39,3.62-.28,7.3-.5,10.94-.11,1.8.82,4.62-2.23,4.59s-1.7-2.74-1.73-4.3C170,76,170,68.2,170,60.39A8.39,8.39,0,0,1,170.5,57a2.88,2.88,0,0,1,3-1.4c1.82.08,1.46,1.45,1.48,2.54C175,60.82,175,63.46,175,66.6Z"/><path class="cls-3" d="M217,60.12c1.3-.87,1.92-1.38,2.62-1.73,2.33-1.18,5-2,6.79.31,2,2.7-.26,4.72-2.42,6.07s-2.32,2-.27,3.74c2.44,2.1,2.38,5.35,2.26,8.39-.08,1.86-1.18,2.61-2.95,2.63-2.21,0-2.28-1.36-2.12-3,.2-2,.26-4-.92-5.8a2.64,2.64,0,0,0-2.49-1.35c-1.4.13-1.21,1.35-1.25,2.3-.09,2.33-.15,4.66-.17,7,0,1.66-.88,2.59-2.43,2.46s-1.55-1.43-1.55-2.66c0-8.83,0-17.66-.08-26.49,0-2.36,1.2-3.4,3.36-3.33,2.52.08,1.54,2.09,1.59,3.39C217,54.46,217,56.94,217,60.12Zm.16,6.11c2.84-.59,4.91-1.73,5.7-4.35.22-.71-.67-1.27-1.25-1.09C219.16,61.55,217.14,62.78,217.14,66.23Z"/><path class="cls-3" d="M244,20.85c0,4,.09,8,0,12-.06,1.82.67,4.9-2.25,4.58-3.69-.4-8.51,4.12-11.07-2.26-2.39-6,1.08-14.76,7.15-16.81,2.11-.71,1.9-1.89,1.92-3.35,0-2.5,0-5,.1-7.49C239.94,5.6,241.51,5,243,5c1.94-.06,1.81,1.51,1.75,2.87q-.29,6.49-.59,13Zm-4.1,7.85a5.55,5.55,0,0,0,0-1.48c-.47-1.62,1-4.39-1.05-4.73s-2.66,2.47-3.34,4.29a4.17,4.17,0,0,0-.27,1.46c0,2.67-1.29,6.69,2.54,6.88s1.5-3.84,2.15-5.93A1.45,1.45,0,0,0,239.93,28.7Z"/><path class="cls-3" d="M152,78.54a18.25,18.25,0,0,0,.14,2.62c.33,2.42,1.14,4.71,3.84,5.23,2.35.45,4.15-.82,5.43-2.78.45-.69.89-1.4,1.38-2.07a2,2,0,0,1,2.69-.52c1.11.59.81,1.62.45,2.61-1.28,3.57-6.92,7.49-10.59,7.21-4.63-.35-6.51-3.6-7.46-7.55-2-8.28.25-15.55,6-21.6,2.78-2.92,6.39-4.45,10.34-1.88,1.84,1.2,2.86,2.92,1.13,5-1.94,2.36-2.55.06-3.63-1-2.56-2.58-4.67-.83-6.29,1.13C152.58,68.45,152,72.76,152,78.54Z"/><path class="cls-3" d="M229.12,68.57c0-7,4.3-13.43,9.53-14,2.29-.25,5-.66,6.29,1.77s.74,5.23-.95,7.52A11.36,11.36,0,0,1,237.37,68c-1.42.37-3.6.22-3.23,2.81.17,1.18.37,2.5,1.61,2.86a3.27,3.27,0,0,0,4-2.06c.72-1.55,1.45-3.65,3.4-2.36,2.25,1.5.76,3.71-.49,5.13a8.53,8.53,0,0,1-9,2.88C230.93,76.45,229.13,72.78,229.12,68.57Zm12.07-7.92c0-1.4.23-3-1.76-3-3.85.11-3.94,3.35-4.74,6-.36,1.17-.21,2.12,1.23,1.87C238.69,65,241,63.86,241.19,60.65Z"/><path class="cls-3" d="M222.39,18.6c4.81,0,6.62,2.55,5.07,7.14-1.33,4-4.54,5.47-8.19,6.49-1.34.38-3.28.26-2.79,2.57.26,1.24.28,2.86,2,3.11a3.44,3.44,0,0,0,3.67-2,9.53,9.53,0,0,1,1.18-2.16,2,2,0,0,1,2.32-.34,1.71,1.71,0,0,1,.87,2.1,7,7,0,0,1-4.73,5.32c-2.59,1-5.34,1.66-7.45-.62-3.75-4.07-3.15-8.87-1.49-13.59C214.39,22.11,217.08,18.73,222.39,18.6Zm1.4,5.81c-.07-1.37-.45-3-2.47-2.65-3.25.55-3.72,3.38-4.23,6-.19,1-.25,2.11,1.33,1.91A5.63,5.63,0,0,0,223.79,24.41Z"/><path class="cls-3" d="M248.81,64.5a40.76,40.76,0,0,1,0-5c.37-3-1.6-8.25,5.06-5.6.11,0,.33-.09.44-.2,2.37-2.27,5.47-3.69,8.08-1.67s.6,5.65.58,8.54c0,3.15-.62,6.29-.93,9.44-.15,1.55-.37,3.47-2.25,3.2s-1.3-2.33-1.24-3.74c.14-3.49.35-7,.49-10.48,0-1.16.12-2.55-1.2-3s-2.46.6-3.41,1.55c-1.31,1.31-1.32,3-1.33,4.66,0,3.33-.12,6.66-.18,10,0,1.56-.75,2.6-2.37,2.62-2,0-1.84-1.43-1.81-2.82,0-2.5,0-5,0-7.5Z"/><path class="cls-3" d="M172,34.27q0-1.25,0-2.5c0-14,0-14,13.83-15.84,1.21-.16,2.8-.94,3.21,1.1s-.67,2.68-2.49,2.86c-2.15.21-4.27.73-6.43.85-3.05.18-4,1.52-4.24,4.65-.45,4.91,1.31,6.09,5.71,5.06,1.12-.26,2.95-1.17,3.27.84.24,1.52-1.21,2.37-2.67,2.29-6.88-.38-6.8,4.19-7,9.1-.08,2.09,1.66,6.14-1.89,6.06-2.72-.06-1-3.89-1.23-6A78,78,0,0,1,172,34.27Z"/><path class="cls-3" d="M195,74.12c.26-4.48,1.63-8.46,4.89-11.63a5.86,5.86,0,0,1,5.88-1.82c1.61.47,3.33,1.36,2.57,3.48s-1.91,2-3.52.29-2.74.12-3.45,1.31a14,14,0,0,0-1.94,8.58c.15,1.63.39,3.53,2,4.34,1.86.93,3-.45,4-1.91A1.62,1.62,0,0,1,208,76.2c1.14.84.53,1.83,0,2.58-1.85,2.67-4.2,5.25-7.67,4.4C195.79,82.08,195.17,78.08,195,74.12Z"/><path class="cls-3" d="M188.33,35.79c0-1.66-.1-3.33,0-5,.24-3.35-1.17-8.05,5.42-6.23,1.06.29,2.61-1.85,4.38-2s3.4.18,3.86,2.24a3.86,3.86,0,0,1-2.11,4.6c-.85.44-2.05.73-2.62-.4-.49-1,.31-3.18-1.85-2.44-1.61.55-2.26,2.36-2.33,4.12-.14,3.49-.22,7-.36,10.47a23.83,23.83,0,0,1-.33,3.47,2.12,2.12,0,0,1-2.57,1.77c-1.15-.14-1.61-1-1.61-2.15q0-4.24,0-8.48Z"/><path class="cls-3" d="M193,66c-.53,5.53-1.05,10.95-1.55,16.38-.15,1.63-.65,3-2.56,3-2.42,0-1.75-2-1.71-3.32.17-5.45.47-10.89.68-16.34.09-2.39,1.58-3.18,3.62-3C193.95,62.87,192.79,64.87,193,66Z"/><path class="cls-3" d="M204.33,32.72c.15-2.82.4-5.64.43-8.47,0-2.42,1.47-3.31,3.48-3.25,2.3.08,1.77,2,1.64,3.39-.46,5.3-1,10.59-1.46,15.88-.16,1.73-.39,3.5-2.71,3.36s-1.48-2.15-1.54-3.44c-.11-2.49,0-5,0-7.48Z"/><path class="cls-3" d="M190.46,60.09c-1-.17-2.22-.33-2.07-1.61.21-1.72,1.68-2.38,3.2-2.53,1-.1,2.1.44,2,1.64C193.5,59.44,192,59.87,190.46,60.09Z"/><path class="cls-3" d="M210.53,15.89c-.07,1.56-1.29,2.15-2.56,2.51s-2.55-.06-2.7-1.39c-.17-1.53,1.12-2.3,2.52-2.53C208.93,14.28,210.16,14.23,210.53,15.89Z"/><path class="cls-4" d="M105.69,228.45c2.66,2,4-.82,5.62-1.78,10.3-6.17,20.84-12.05,30.57-19,8.67-6.23,16.36-5.34,24.45.26,5.11,12.7-.4,36.91-10.4,46.17-2.48,2.3-8.35,3.4-7.06,6.59s6.84,1.16,10.5,1.31c38.52,1.55,57.44,34.71,44.42,66.14-12.13-2-20.91-9.18-28.46-18.34-2.06-2.5-3.77-6.12-7.74-5.44-4.45.76-5.57,4.79-6.45,8.49A35.85,35.85,0,0,1,155,325.28c-3.48,4.89-7,9.73-10.52,14.59-13.49-2.88-26.08-7.73-36.43-17.22-1.9-1.75-5-3.34-4.47-6.24.61-3.1,4.16-2.81,6.64-3.43,10.58-2.67,20.42-6.8,27.6-15.36a40.74,40.74,0,0,0,9.61-20.86c-1.79,1.16-2.52,1.37-2.77,1.84-8.66,15.94-23.3,23.75-39.87,28.07-16.05,4.18-31.74,2.57-46-6.89,5.54-9.59,12.52-18.31,17.31-28.36,4.15-2.15,5.17-7.44,9.46-9.45,2.46-1,5.19-1.66,7.33-3.15a49.93,49.93,0,0,1,30.2-9.1c5.23.08,10.23,1.61,15.55,2-.17-1-.1-1.59-.34-1.86a12.23,12.23,0,0,0-2.4-2.3c-11.78-7.62-23.36-5.09-35,.59-1.63.8-3.21,3.57-5.16,1.72-1.79-1.7-.43-4.15.31-6.28C98.15,237.83,103,233.82,105.69,228.45Zm29.06,40.24c3.63-.33,5.8-2.22,5.83-5.94s-2-5.9-5.7-6c-4-.1-6.26,2.14-6.16,6.18C128.81,266.66,131.1,268.45,134.75,268.68Zm-14.12-13.24c-1.86.06-3.47.71-3.72,2.86s1.15,3.29,3.11,3.49c2.23.22,4.08-.65,4.16-3.13C124.26,256.56,122.72,255.61,120.63,255.44Z"/><path class="cls-5" d="M205.95,223.07a49.4,49.4,0,0,1-3.27-15.5c7.73,11.89,18.9,19.12,32,23.91,17.77,6.5,36,7.76,54.63,5.44,15.42-1.92,30-6.11,42.4-16.15,5-2.13,7.37-6.93,10.95-10.51,1.29,2.86.51,5.61-.13,8.49-4.66,21.11-9.19,42.24-13.77,63.37-2.13,3.1-2.29,7-2.38,10.26-.4,13.94-8.39,18.87-21,20.2-12.81,1.35-25.52,3.53-38.45,1.9,1.29-2.43,3.5-3.91,5.55-5.65C285.32,298,295.91,285.23,303.24,270c1.31-2.73,2.42-5.62-1.1-7.53-3-1.62-5.82-1.93-8,1.67-5.26,8.73-13.22,12.16-23.19,11.37-11.63-1.11-20.22-10.19-21.42-22.73-.25-2.63.29-5.5-3-6.73C231.74,240.56,218.4,232.59,205.95,223.07Z"/><path class="cls-6" d="M266.93,314.49c12.93,1.63,25.65-.54,38.45-1.9,12.58-1.33,20.57-6.26,21-20.2.09-3.3.25-7.17,2.38-10.26a82.18,82.18,0,0,1,44.54,14.77c8.73,5.94,7.48,16.44-1.58,22-10.23,6.23-21.33,9.74-33.17,11.88-18,3.25-36.17,3.49-54.25,5.27-8.63.85-16.31,5.18-23.89,9.25a8.15,8.15,0,0,1-4.38,1.29c-.06-1.49.57-2.29,2-2.94,2.92-1.29,4.48-3.6,3.66-7-.92-3.79-4-3.7-6.88-3.49a18.11,18.11,0,0,1-9.56-2.08c1.13-3.72.15-6.69-3.36-8.47-4.63-2.34-5.9-6.39-6.06-11.11C246.18,312.69,256.39,315.32,266.93,314.49Z"/><path class="cls-6" d="M144.49,339.88c3.51-4.86,7-9.71,10.52-14.59a35.85,35.85,0,0,0,6.12-12.49c.88-3.69,2-7.73,6.45-8.49,4-.68,5.68,2.95,7.74,5.44,7.55,9.15,16.32,16.33,28.46,18.34,1.93,1.53,4.24,1.15,6.45,1.25,8.79.7,16.72,3.11,22.47,10.46,1.51,1.93,4.07,1.26,6.24,1.28,1.95,2.4,3.86,4.81,4.65,7.89-15.6,3.2-31.42,2.66-47.2,3.38-7.12.32-14.23,2.31-21.6,2.47-17.87.4-35.75-1.65-53.24-3.65C103,349,83.39,346.66,66.79,335.84c-2.41-1.57-4.55-3.56-6.82-5.36,4.26-5.36,11.29-5.69,16.59-9.15,1.09-.23,2.2-.39,3.26-.71C95,316,98.9,317.72,106,332.4c.77,1.6,1.49,3.23,2.24,4.86a25.06,25.06,0,0,0,6.25,8.59C124.83,354.9,140.75,351.73,144.49,339.88Z"/><path class="cls-7" d="M205.95,223.07c12.46,9.52,25.79,17.49,40.55,22.95,3.34,1.23,2.8,4.1,3,6.73,1.2,12.54,9.8,21.62,21.42,22.73-10.58,12.07-24.58,18.25-39.46,22.91-5.44-8.69-8.4-19-16.93-25.68a3.36,3.36,0,0,1,.09-1.1c2.15-6.11-1.23-11.59-2.2-17.29C210.7,243.83,208.16,233.48,205.95,223.07Z"/><path class="cls-8" d="M244.33,129c2.78-5.66,7.5-5.89,12.73-4.21,1.25-9.61,5.39-10.56,15.29-3.82-4.29,4.31-4,9.72-4.12,15.26-.14,9.24,1.27,18.57-1.24,27.71l-10.78,4c-1-1.16-1.73-4-3.71-2.2-3.06,2.83.83,14.6,5,15.93l1.46,2.49c-5,1.7-4.28,5.64-3.7,9.46,1.21,7.92,2.52,15.82,3.78,23.73-8.67-1-17.46-1.4-25.69-4.78,0-10.28,0-20.55.06-30.83,0-3.63.16-7.14-3.48-9.5-2.71-1.76,0-2.88.8-4.18l6.81-2.9,2.61.16c7.19,2.83,2.07,10.22,5.72,14.58,1-8.08,1.77-16.13.17-24.11-1.07-5.36,1.34-11.78-4.37-15.87l0-.54,1.65-2.37a6.78,6.78,0,0,0,2-.18c8.51-3.47,10.87-2,10.9,7.07,0,4.67,0,9.34,0,14a141.83,141.83,0,0,0,4-23.76c.15-1.52.12-5.09-1.66-4.05C253.18,133.13,249,128.81,244.33,129Z"/><path class="cls-2" d="M144.49,339.88c-3.74,11.85-19.66,15-30,6a25.06,25.06,0,0,1-6.25-8.59c-.74-1.62-1.46-3.25-2.24-4.86C98.9,317.72,95,316,79.82,320.62c-1.06.32-2.17.48-3.26.71-5.24-1.52-10.37-.16-15.51.61-10.36,1.56-18.15,8.73-27.43,12.64-3.47-5.68-1.79-10.43,3.34-13.71,8.75-5.59,15.37-13.24,21.87-21.09,14.26,9.46,29.94,11.07,46,6.89,16.57-4.32,31.21-12.13,39.87-28.07.25-.46,1-.67,2.77-1.84a40.74,40.74,0,0,1-9.61,20.86c-7.19,8.56-17,12.69-27.6,15.36-2.48.63-6,.33-6.64,3.43-.57,2.91,2.56,4.5,4.47,6.24C118.41,332.15,131,337,144.49,339.88Z"/><path class="cls-2" d="M214.66,271.6a3.36,3.36,0,0,0-.09,1.1,26.88,26.88,0,0,0,1.38,8.44,75.08,75.08,0,0,1-.65,43.88c-.81,2.62-2.15,4.32-5.08,4.3-2.21-.09-4.52.29-6.45-1.25,13-31.43-5.9-64.59-44.42-66.14-3.66-.15-9.21,1.88-10.5-1.31s4.58-4.3,7.06-6.59c10-9.26,15.51-33.47,10.4-46.17,6.09,1.56,8.8,5.74,8.86,11.76.1,8.88,1.67,17.82-.9,26.61-.63,2.16-.29,3.32,2.31,3.4C193.22,250.11,204.7,259.56,214.66,271.6Z"/><path class="cls-2" d="M105.69,228.45c-2.69,5.38-7.54,9.39-9.57,15.2-.74,2.13-2.1,4.58-.31,6.28,1.95,1.85,3.53-.92,5.16-1.72,11.6-5.68,23.18-8.21,35-.59a12.23,12.23,0,0,1,2.4,2.3c.24.27.17.83.34,1.86-5.31-.44-10.31-2-15.55-2a49.93,49.93,0,0,0-30.2,9.1C90.78,260.32,88,261,85.59,262a275,275,0,0,1-1.24-44.18l0-.11,1-1.86c4-13.47,11.18-25.3,19.2-36.67,1-1.39,1.79-3.43,4.06-2.84a3.07,3.07,0,0,1,2.16,3.73c-4.53,15.46.31,31.79-4.44,47.2A6.86,6.86,0,0,1,105.69,228.45Z"/><path class="cls-9" d="M331.69,220.78c-12.36,10-27,14.22-42.4,16.15-18.6,2.32-36.86,1.05-54.63-5.44-13.08-4.78-24.24-12-32-23.91-.12-1.58-2-2.69-1.24-4.5l10.49,3.63,6.69,3,3.73,1.61a37.58,37.58,0,0,0,5,3.19c17.44,7.57,36,9.89,54.71,11.13,14.17.94,27.95-1.94,41.55-5.63C326.46,219.24,329.25,218,331.69,220.78Z"/><path class="cls-8" d="M211.93,206.71l-10.49-3.63c-2-14.62-6.06-28.73-10.32-42.8-1.76-5.82.81-9.37,6.88-8.46,4.67.7,9.2,2.06,10.66,7.83.47-7.29-1.56-14.16-2.49-21.15-.35-2.6-3.27-5.37.12-7.85a8.59,8.59,0,0,1,10-.54c1.15.65,2.42,1.1,3.64,1.64-2.78,4.82-2.7,9.71-1.75,15.19a115,115,0,0,0,4.48,17l-2.87,6.51c-3.71-3.63-9.74-2.51-13.29-6.49-.32-1.79.81-4.24-2.07-4.86-.39-.08-1.31.61-1.39,1.06-.5,2.7,1.35,3.4,3.48,3.78a24,24,0,0,0,.59,14.24C210.19,187.46,210.31,197.2,211.93,206.71Z"/><path class="cls-10" d="M331.69,220.78c-2.44-2.8-5.23-1.53-8-.77-13.6,3.69-27.38,6.57-41.55,5.63-18.71-1.24-37.27-3.56-54.71-11.13a37.36,37.36,0,0,1-5-3.19l.25-.33,2.38.2c2.6,1.58,5.54,1,8.34,1.35,8.23,3.38,17,3.75,25.69,4.78l3.85.12,10.87.09,5.33,0,8.06-.12a22.44,22.44,0,0,0,12.14-2.26c4.6-.52,9.61,1.2,13.62-2.5l3.75-.55c4.94.28,9-2.64,13.53-3.8l2.65-1.35c4.23-.66,7.9-4,12.55-2.68l-.57,2.56L342.83,210l-.2.23C339.06,213.85,336.66,218.65,331.69,220.78Z"/><path class="cls-11" d="M256.22,167.9l10.78-4c3.35.14,3.37-2.12,4.13-4.67,2.29-7.71,1.68-16,5.2-23.45A48.62,48.62,0,0,1,279.13,121c3.84,1.63,6.28,5.57,10.59,6.42-2.2,6.23-5.21,12.36-2.44,19.23-7.38,2.44-1.9,8-2.92,12-3.51,5.8-3.19,12.43-4,18.8l-1.28-.08c-1-3.94-4.7-4.49-7.57-5.7-5.48-2.3-9.49.9-8.2,6.66,1.34,6,.75,11.87.88,17.82-3.23.11-3.91-1.82-4-4.59,0-2.52.72-5.24-1.28-7.45l-1.46-2.5C257.75,177,257.67,172.38,256.22,167.9Z"/><path class="cls-2" d="M233.31,212.53c-2.8-.32-5.74.23-8.34-1.35,4.31-2.42,3.21-6.57,2.75-10.1s-.66-7-1.17-10.51c-1.31-8.88-1.24-18-3.9-26.65a114.94,114.94,0,0,1-4.48-17c-.95-5.48-1-10.37,1.75-15.19,2.78,1.15,2.66-.7,2.72-2.54.12-3.53.11-7.13,3.14-9.72,2.1-1.79,3.75-4.67,7.27-3.19,3.2,1.35,5.94,3.08,5.38,7.24-2.84.67-2.44,3.62-3.75,5.36-6.42-3.73-9-3.38-9.29,1.48-.54,10.53-.83,21.05.94,31.57.53,3.13,2.19,4.56,4.34,6.07-.79,1.31-3.51,2.42-.8,4.18,3.64,2.36,3.5,5.87,3.48,9.5C233.31,192,233.33,202.26,233.31,212.53Z"/><path class="cls-8" d="M330.14,208.27c-4.54,1.16-8.58,4.08-13.53,3.8-.3-8.87.75-17.78-.62-26.62-.28-1.82.52-2.74,1.82-3.86,4.12-3.53,6.37-12.74,3.15-16.71s-1.14-4.7,2.06-5.51c1.92-.49,3.91-.72,5.87-1.06l4.83,1.59.48,1.38c1,1.79-.61,2.84-1.16,4.19-.36,5.38-2.22,10.59-1.75,16.06-.43,1.32-1.6,2.66.13,3.9C326.34,190.37,325.59,203.56,330.14,208.27Z"/><path class="cls-11" d="M328.9,158.32c-2,.35-3.95.58-5.87,1.06-3.2.81-5.4,1.4-2.06,5.51s1,13.18-3.15,16.71c-1.3,1.12-2.11,2-1.82,3.86,1.37,8.84.32,17.75.62,26.62l-3.74.55c-3.4-1.15-2.93-4-2.88-6.63.24-12.36,2.85-24.47,4-36.73,2.68-4.29.61-9.08,1.43-13.57,4-3.58,5.1-8,4-13.16,3.09-.59,1.78-4.23,3.83-5.54,2.11,3.77,7,3.53,9.55,6.73C329.74,148.12,330.31,153.48,328.9,158.32Z"/><path class="cls-11" d="M345.35,204.24c-4.65-1.29-8.32,2-12.55,2.68q0-5.4,0-10.8c.75-.77,2.06-1.47,2.17-2.33,1.24-9.14,4.54-17.95,4.55-27.29l11.76-2.57c-1.42,9-2.9,17.95-4.25,26.93C346.35,195.31,345.9,199.78,345.35,204.24Z"/><path class="cls-8" d="M284.36,158.66c1-4-4.46-9.56,2.92-12l3.75-.31,6.93,4.1c0,.45.06.9.09,1.36-3.91,3.73-4.2,7.91-3.51,13.3.84,6.65,2.92,13.52.62,20.35l-1.35,1.22c-4.27.33-7.61-3.31-11.92-2.81C286.32,175.83,283.85,167.1,284.36,158.66Z"/><path class="cls-12" d="M84.35,217.8A275,275,0,0,0,85.59,262c-4.29,2-5.31,7.29-9.46,9.45-2.62-5.58-1.12-11.41-.81-17.1.38-6.89,1.87-13.74,2-20.62A21,21,0,0,1,84.35,217.8Z"/><path class="cls-13" d="M243.59,349c-.79-3.08-2.7-5.5-4.65-7.89,1.51-3.7,3.25-7.26,6.31-10a18.13,18.13,0,0,0,9.56,2.08c2.92-.21,6-.3,6.88,3.49.82,3.35-.74,5.66-3.66,7-1.47.65-2.09,1.44-2,2.93-.26.34-.68.66-.74,1-.5,3,0,6.54-4.15,7.35C246.38,355.84,245.22,352.08,243.59,349Z"/><path class="cls-11" d="M298.06,151.82l-.09-1.36c3.18-5.92,1.28-12.6,2.83-18.76,3.64,1.51,7.4,2.77,10.53,5.31-1.85,9.81-1.33,19.73-1.36,29.63l-5.42,0c-5.47.69-7-1.28-5.65-6.81C299.44,157.57,302.82,153.94,298.06,151.82Z"/><path class="cls-12" d="M33.61,334.58c9.28-3.91,17.08-11.09,27.43-12.64,5.14-.77,10.27-2.13,15.51-.61-5.3,3.47-12.33,3.79-16.59,9.15-2.76,2.48-5.3,5.27-8.32,7.39C44.73,342.74,38.93,341.55,33.61,334.58Z"/><path class="cls-2" d="M276.32,135.78c-3.52,7.41-2.92,15.74-5.2,23.45-.76,2.55-.78,4.81-4.13,4.67,2.5-9.14,1.09-18.47,1.24-27.71.09-5.55-.17-11,4.12-15.26,3.21,1.53,1.73,4.54,2.19,6.94C275.06,130.52,273.55,133.63,276.32,135.78Z"/><path class="cls-12" d="M310,166.64c0-9.9-.49-19.82,1.36-29.63,2-2.34,4-4.63,4-7.94,2.5,3.81.09,8.15,1.28,12.1-2.11,4.7-.82,9.68-1.2,14.52-.82,4.49,1.25,9.28-1.43,13.57Z"/><path class="cls-12" d="M234.69,128.9c1.32-1.74.91-4.69,3.75-5.36,1.92,5.09.35,10.9,3.22,15.8l0,.54c-3.26,8.3-.65,17-1.52,25.4l-2.61-.16Z"/><path class="cls-11" d="M244.33,129c4.7-.15,8.84,4.17,14.16,1.1,1.79-1,1.81,2.53,1.66,4.05a141.83,141.83,0,0,1-4,23.76c0-4.67,0-9.34,0-14,0-9-2.39-10.54-10.9-7.07a6.78,6.78,0,0,1-2,.18C242.86,134.2,243.75,131.6,244.33,129Z"/><path class="cls-12" d="M339.5,166.51c0,9.34-3.31,18.14-4.55,27.29-.12.86-1.42,1.56-2.17,2.33-.51-3.55,1.15-7.38-1.35-10.68-1.73-1.24-.57-2.59-.13-3.9,2.45-3.64,2.37-8,3.38-12,.44-1.74,1.16-3.61-1.64-4,.56-1.35,2.18-2.4,1.16-4.19l2.52-1.43Z"/><path class="cls-4" d="M289.72,127.44c-4.31-.85-6.75-4.79-10.59-6.42,5.92-8,9.81-8.31,14.66-1.21C294.17,123.28,291.18,125,289.72,127.44Z"/><path class="cls-12" d="M289.72,127.44c1.46-2.49,4.45-4.16,4.08-7.63,1.83,6.68-1.81,12.84-1.89,19.35a63.89,63.89,0,0,1-.87,7.2l-3.75.31C284.51,139.81,287.52,133.68,289.72,127.44Z"/><path class="cls-8" d="M315.35,129.07c0,3.3-2.08,5.6-4,7.94-3.12-2.54-6.89-3.8-10.53-5.31C306,123.15,310,122.44,315.35,129.07Z"/><path class="cls-4" d="M339.5,166.51l-2.78-6.66c7.42-3.56,10.67-2.65,14.54,4.08Z"/><path class="cls-12" d="M328.9,158.32c1.42-4.83.84-10.2,3.91-14.59,2.06-1.25,3.79-2.75,4.09-5.34,2.5,3.77-.44,7.12-.91,10.64s-1.48,7.26-2.25,10.88Z"/><path class="cls-8" d="M336.89,138.39c-.3,2.59-2,4.09-4.09,5.34-2.51-3.2-7.44-3-9.55-6.73C330.15,132.53,332.22,132.74,336.89,138.39Z"/><path class="cls-8" d="M315.43,155.7c.37-4.84-.92-9.82,1.2-14.52l2.79,1.37C320.53,147.67,319.41,152.11,315.43,155.7Z"/><path class="cls-5" d="M342.83,210l1.94-3.23C344.74,208.25,345.11,209.94,342.83,210Z"/><path class="cls-12" d="M85.34,215.84l-1,1.86Z"/><path class="cls-8" d="M134.75,268.68c-3.65-.23-5.94-2-6-5.75-.1-4,2.12-6.27,6.16-6.18,3.71.09,5.72,2.31,5.7,6S138.37,268.35,134.75,268.68Z"/><path class="cls-8" d="M120.63,255.44c2.09.17,3.63,1.12,3.56,3.22-.08,2.49-1.93,3.36-4.16,3.13-2-.2-3.36-1.31-3.11-3.49S118.77,255.5,120.63,255.44Z"/><path class="cls-14" d="M231.5,298.38c14.88-4.66,28.88-10.83,39.46-22.91,10,.79,17.94-2.63,23.19-11.37,2.17-3.6,5-3.29,8-1.67,3.51,1.91,2.41,4.8,1.1,7.53-7.33,15.27-17.92,28-30.76,38.87-2,1.74-4.26,3.21-5.55,5.65-10.54.84-20.75-1.8-31.11-3Z"/><path class="cls-12" d="M231.5,298.38l4.32,13.13c.16,4.71,1.43,8.76,6.06,11.11,3.51,1.78,4.49,4.75,3.36,8.47-3.05,2.73-4.8,6.28-6.31,10-2.18,0-4.73.65-6.24-1.28C227,332.44,219,330,210.23,329.33c2.92,0,4.26-1.67,5.08-4.3a75.08,75.08,0,0,0,.65-43.88,26.88,26.88,0,0,1-1.38-8.44C223.1,279.37,226.06,289.69,231.5,298.38Z"/><path class="cls-11" d="M234.69,128.9l2.8,36.23-6.81,2.9c-2.15-1.51-3.81-2.95-4.34-6.07-1.78-10.52-1.48-21-.94-31.57C225.65,125.52,228.27,125.17,234.69,128.9Z"/><path class="cls-2" d="M240.11,165.29c.87-8.45-1.74-17.1,1.52-25.4,5.71,4.1,3.3,10.51,4.37,15.87,1.6,8,.81,16-.17,24.11C242.18,175.51,247.3,168.11,240.11,165.29Z"/><path class="cls-2" d="M258.92,184.12c2,2.21,1.24,4.93,1.28,7.45,0,2.77.73,4.7,4,4.59-.27,7.1-1.89,14.12-1.3,21.28l-3.85-.12c-1.27-7.91-2.57-15.81-3.78-23.73C254.64,189.77,254,185.82,258.92,184.12Z"/><path class="cls-12" d="M256.22,167.9c1.45,4.48,1.53,9.09,1.25,13.73-4.13-1.33-8-13.1-5-15.93C254.49,163.87,255.19,166.74,256.22,167.9Z"/><path class="cls-11" d="M206.5,163.94c3.54,4,9.57,2.86,13.29,6.49-.93,13.29,3.13,26.24,2.68,39.5l-3.85-.23-6.69-3c-1.62-9.51-1.74-19.25-4.82-28.54a24,24,0,0,1-.59-14.24Z"/><path class="cls-10" d="M218.62,209.7l3.85.23q0,.53.13,1.05l-.25.33Z"/><path class="cls-12" d="M222.6,211q-.08-.52-.13-1.05c.46-13.26-3.61-26.21-2.68-39.5l2.87-6.51c2.66,8.68,2.59,17.77,3.9,26.65.51,3.47.71,7,1.17,10.51s1.56,7.68-2.75,10.1Z"/><path class="cls-11" d="M206.52,163.93c-2.13-.38-4-1.08-3.48-3.78.08-.45,1-1.14,1.39-1.06,2.89.61,1.75,3.06,2.07,4.86Z"/><path class="cls-8" d="M310,166.64l4,2.63c-1.16,12.26-3.77,24.37-4,36.73-.05,2.61-.52,5.48,2.88,6.63-4,3.7-9,2-13.62,2.5-.42-8.49,1.56-16.78,2.09-25.19.32-5,3.56-10.86.71-14.85-3.71-5.18-.38-6.27,2.49-8.43Z"/><path class="cls-8" d="M262.85,217.44c-.59-7.16,1-14.18,1.3-21.28-.13-5.94.46-11.86-.88-17.82-1.29-5.76,2.72-9,8.2-6.66,2.87,1.21,6.61,1.76,7.57,5.7-5.49,1.46-5.14,6.19-5.25,10.21-.26,10-.08,20-.08,29.94Z"/><path class="cls-2" d="M304.54,166.66c-2.87,2.16-6.21,3.25-2.49,8.43,2.86,4-.39,9.82-.71,14.85-.53,8.4-2.51,16.69-2.09,25.19a22.44,22.44,0,0,1-12.14,2.26c.46-2.31,2.27-2.38,4.08-2.47a107.24,107.24,0,0,0,4-29.45c2.29-6.83.22-13.7-.62-20.35-.68-5.39-.39-9.57,3.51-13.3,4.77,2.12,1.38,5.75.83,8C297.54,165.39,299.07,167.35,304.54,166.66Z"/><path class="cls-11" d="M291.19,214.92c-1.81.09-3.62.16-4.08,2.47l-8.06.12c1.2-3.88,1.79-7.7.4-11.76-.78-2.27-.94-4.85,1-6.95,2.75-4.75.56-10,1.5-14.92,4.31-.5,7.65,3.14,11.92,2.81C290.13,195.84,291.28,205.44,291.19,214.92Z"/><path class="cls-2" d="M280.4,198.8c-1.89,2.1-1.73,4.68-1,6.95,1.4,4.06.8,7.88-.4,11.76l-5.33,0c0-10-.18-20,.08-29.94.1-4-.24-8.74,5.25-10.21l1.28.08Q280.37,188.13,280.4,198.8Z"/><path class="cls-2" d="M331.43,185.44c2.5,3.3.84,7.13,1.35,10.68q0,5.4,0,10.8l-2.65,1.35C325.59,203.56,326.34,190.37,331.43,185.44Z"/><path class="cls-12" d="M280.4,198.8q0-10.67-.08-21.33c.84-6.38.53-13,4-18.8-.51,8.44,2,17.17-2.46,25.22C281,188.81,283.16,194.05,280.4,198.8Z"/><path class="cls-15" d="M333,165.48c2.8.44,2.07,2.3,1.64,4-1,4-.94,8.38-3.38,12C330.83,176.07,332.68,170.85,333,165.48Z"/><path class="cls-12" d="M291.19,214.92c.09-9.48-1.06-19.08,2.63-28.22l1.35-1.22A107.24,107.24,0,0,1,291.19,214.92Z"/></g></g></svg>